<svg width="16" height="17" viewBox="0 0 16 17" fill="none" xmlns="http://www.w3.org/2000/svg">
<path d="M1.33331 8.5C1.33331 5.98585 1.33331 4.72877 2.11436 3.94772C2.89541 3.16667 4.15249 3.16667 6.66665 3.16667H9.33331C11.8475 3.16667 13.1045 3.16667 13.8856 3.94772C14.6666 4.72877 14.6666 5.98585 14.6666 8.50001V9.83334C14.6666 12.3475 14.6666 13.6046 13.8856 14.3856C13.1045 15.1667 11.8475 15.1667 9.33331 15.1667H6.66665C4.15249 15.1667 2.89541 15.1667 2.11436 14.3856C1.33331 13.6046 1.33331 12.3475 1.33331 9.83334V8.5Z" stroke="#7D7B7C" stroke-width="1.5"/>
<path d="M4.66669 3.16667V2.16667" stroke="#7D7B7C" stroke-width="1.5" stroke-linecap="round"/>
<path d="M11.3333 3.16667V2.16667" stroke="#7D7B7C" stroke-width="1.5" stroke-linecap="round"/>
<path d="M1.66669 6.5H14.3334" stroke="#7D7B7C" stroke-width="1.5" stroke-linecap="round"/>
</svg>
