<svg width="20" height="20" viewBox="0 0 20 20" fill="none" xmlns="http://www.w3.org/2000/svg">
<path d="M5 9.16666C5 6.80963 5 5.63112 5.73223 4.89889C6.46447 4.16666 7.64298 4.16666 10 4.16666H12.5C14.857 4.16666 16.0355 4.16666 16.7678 4.89889C17.5 5.63112 17.5 6.80963 17.5 9.16666V13.3333C17.5 15.6903 17.5 16.8689 16.7678 17.6011C16.0355 18.3333 14.857 18.3333 12.5 18.3333H10C7.64298 18.3333 6.46447 18.3333 5.73223 17.6011C5 16.8689 5 15.6903 5 13.3333V9.16666Z" stroke="#635F60" stroke-width="1.25"/>
<path d="M5 15.8333C3.61929 15.8333 2.5 14.714 2.5 13.3333V8.33332C2.5 5.19063 2.5 3.61928 3.47631 2.64297C4.45262 1.66666 6.02397 1.66666 9.16667 1.66666H12.5C13.8807 1.66666 15 2.78594 15 4.16666" stroke="#635F60" stroke-width="1.25"/>
</svg>
