<svg width="20" height="20" viewBox="0 0 20 20" fill="none" xmlns="http://www.w3.org/2000/svg">
<path d="M13.8767 2.87921L14.4173 2.33853C15.3132 1.4427 16.7656 1.4427 17.6614 2.33853C18.5572 3.23435 18.5572 4.68678 17.6614 5.58261L17.1207 6.12328M13.8767 2.87921C13.8767 2.87921 13.9442 4.02815 14.958 5.04193C15.9718 6.0557 17.1207 6.12328 17.1207 6.12328M13.8767 2.87921L8.90594 7.84993C8.56926 8.18661 8.40092 8.35495 8.25615 8.54056C8.08537 8.75951 7.93895 8.99642 7.81949 9.24709C7.71822 9.45958 7.64294 9.68543 7.49237 10.1371L7.01031 11.5833M17.1207 6.12328L12.15 11.094C11.8133 11.4307 11.645 11.599 11.4594 11.7438C11.2404 11.9146 11.0035 12.061 10.7529 12.1805C10.5404 12.2817 10.3145 12.357 9.86281 12.5076L8.41663 12.9896M8.41663 12.9896L7.48087 13.3016C7.25858 13.3757 7.01351 13.3178 6.84783 13.1521C6.68215 12.9864 6.62429 12.7414 6.69839 12.5191L7.01031 11.5833M8.41663 12.9896L7.01031 11.5833" stroke="#635F60" stroke-width="1.25"/>
<path d="M18.3333 9.99999C18.3333 14.6024 14.6023 18.3333 9.99996 18.3333C5.39759 18.3333 1.66663 14.6024 1.66663 9.99999C1.66663 5.39762 5.39759 1.66666 9.99996 1.66666" stroke="#635F60" stroke-width="1.25" stroke-linecap="round"/>
</svg>
