<svg width="20" height="20" viewBox="0 0 20 20" fill="none" xmlns="http://www.w3.org/2000/svg">
<path d="M17.0834 5H2.91663" stroke="#635F60" stroke-width="1.25" stroke-linecap="round"/>
<path d="M15.6946 7.08334L15.3113 12.8326C15.1638 15.045 15.09 16.1512 14.3692 16.8256C13.6483 17.5 12.5397 17.5 10.3223 17.5H9.67787C7.46054 17.5 6.35187 17.5 5.63103 16.8256C4.91019 16.1512 4.83644 15.045 4.68895 12.8326L4.30566 7.08334" stroke="#635F60" stroke-width="1.25" stroke-linecap="round"/>
<path d="M7.91663 9.16666L8.33329 13.3333" stroke="#635F60" stroke-width="1.25" stroke-linecap="round"/>
<path d="M12.0833 9.16666L11.6666 13.3333" stroke="#635F60" stroke-width="1.25" stroke-linecap="round"/>
<path d="M5.41663 5C5.46319 5 5.48648 5 5.50758 4.99947C6.19379 4.98208 6.79915 4.54576 7.03264 3.90027C7.03982 3.88041 7.04718 3.85832 7.06191 3.81415L7.14282 3.57143C7.21188 3.36423 7.24642 3.26063 7.29222 3.17267C7.47497 2.82173 7.81308 2.57803 8.2038 2.51564C8.30173 2.5 8.41094 2.5 8.62934 2.5H11.3706C11.589 2.5 11.6982 2.5 11.7961 2.51564C12.1868 2.57803 12.5249 2.82173 12.7077 3.17267C12.7535 3.26063 12.788 3.36423 12.8571 3.57143L12.938 3.81415C12.9527 3.85826 12.9601 3.88042 12.9673 3.90027C13.2008 4.54576 13.8061 4.98208 14.4923 4.99947C14.5134 5 14.5367 5 14.5833 5" stroke="#635F60" stroke-width="1.25"/>
</svg>
